<svg width="56" height="64" viewBox="0 0 56 64" fill="none" xmlns="http://www.w3.org/2000/svg">
<rect width="56" height="48.7164" rx="16" fill="#741D2E"/>
<path d="M45.5 64L36.4067 41.0746H54.5933L45.5 64Z" fill="#741D2E"/>
<path d="M18.7895 36.2985V14.2222C18.7895 13.4904 19.1326 12.7885 19.7433 12.271C20.354 11.7534 21.1824 11.4627 22.0461 11.4627H38.329C39.1927 11.4627 40.021 11.7534 40.6317 12.271C41.2424 12.7885 41.5855 13.4904 41.5855 14.2222V36.2985L36.7007 33.539L33.4441 36.2985L30.1875 33.539L26.9309 36.2985L23.6744 33.539L18.7895 36.2985Z" stroke="white" stroke-width="2" stroke-linecap="round" stroke-linejoin="round"/>
<path d="M34.7813 18.7861C34.484 18.3483 34.0522 17.9875 33.532 17.7421C33.0119 17.4967 32.4229 17.3761 31.8281 17.3931H28.5469C27.6766 17.3931 26.842 17.6866 26.2267 18.2091C25.6113 18.7316 25.2656 19.4402 25.2656 20.1791C25.2656 20.918 25.6113 21.6267 26.2267 22.1492C26.842 22.6717 27.6766 22.9652 28.5469 22.9652H31.8281C32.6984 22.9652 33.533 23.2587 34.1483 23.7812C34.7637 24.3037 35.1094 25.0124 35.1094 25.7513C35.1094 26.4902 34.7637 27.1988 34.1483 27.7213C33.533 28.2438 32.6984 28.5373 31.8281 28.5373H28.5469C27.9521 28.5543 27.3631 28.4337 26.843 28.1883C26.3228 27.9429 25.891 27.582 25.5937 27.1443" stroke="white" stroke-width="2" stroke-linecap="round" stroke-linejoin="round"/>
<path d="M30.1875 16V29.9303" stroke="white" stroke-width="2" stroke-linecap="round" stroke-linejoin="round"/>
</svg>
